<svg xmlns="http://www.w3.org/2000/svg" width="1280" height="640" viewBox="0 0 1280 640" role="img" aria-labelledby="t d">
<title id="t">Google Account Hardening Guide</title>
<desc id="d">Social preview image.</desc>
<style>text { font-family: -apple-system, BlinkMacSystemFont, 'Segoe UI', 'Noto Sans', Helvetica, Arial, sans-serif; }</style>
<rect width="1280" height="640" fill="#0d1117"/>
<rect width="1280" height="640" fill="#0d1117"/>
<rect x="40" y="40" width="1200" height="560" rx="28" fill="#151b23" stroke="#3d444d"/>
<g transform="translate(118,186) scale(1.2)"><path d="M80 0 L160 28 V100 C160 152 126 186 80 200 C34 186 0 152 0 100 V28 Z" fill="#4493f8"/><path d="M80 18 L144 40 V100 C144 142 117 170 80 182 C43 170 16 142 16 100 V40 Z" fill="none" stroke="#151b23" stroke-opacity="0.35" stroke-width="3"/><circle cx="80" cy="86" r="20" fill="#151b23"/><path d="M69 98 H91 L97 146 H63 Z" fill="#151b23"/></g>
<text x="372" y="238" font-size="74" font-weight="700" fill="#f0f6fc" text-anchor="start">Google Account</text>
<text x="372" y="322" font-size="74" font-weight="700" fill="#f0f6fc" text-anchor="start">Hardening Guide</text>
<text x="374" y="380" font-size="27" font-weight="400" fill="#9198a1" text-anchor="start">Passkeys, recovery, sessions, Gmail, Chrome,</text>
<text x="374" y="416" font-size="27" font-weight="400" fill="#9198a1" text-anchor="start">Android and privacy. Sourced and current.</text>
<rect x="374" y="446" width="134" height="42" rx="21.0" fill="#12261e"/><text x="441.0" y="473.84" font-size="19" font-weight="700" fill="#3fb950" text-anchor="middle">Baseline</text>
<rect x="522" y="446" width="134" height="42" rx="21.0" fill="#2b2111"/><text x="589.0" y="473.84" font-size="19" font-weight="700" fill="#d29922" text-anchor="middle">Enhanced</text>
<rect x="670" y="446" width="122" height="42" rx="21.0" fill="#301517"/><text x="731.0" y="473.84" font-size="19" font-weight="700" fill="#f85149" text-anchor="middle">Maximum</text>
<text x="374" y="548" font-size="22" font-weight="400" fill="#9198a1" text-anchor="start">github.com/iAnonymous3000/google-hardening-guide</text>
</svg>
